PathFileType	4	(X/Y/Z)	/Users/itak/Documents/Research/Walk-IL/dataset/trc/00031_00004.trc
DataRate	CameraRate	NumFrames	NumMarkers	Units	OrigDataRate	OrigDataStartFrame	OrigNumFrames
100.000000	100.000000	4	53	mm	100.000000	0	764
Frame#	Time	RPSI			LPSI			L3			STRN			T10			C7			CLAV			RBAK			LBAK			LSHO			LUPA			LAEL			LAOL			LWTS			LWPS			LFRA			LIFD			LHPS			LHTS			RSHO			RUPA			RAEL			RAOL			RWTS			RWPS			RFRA			RIFD			RHTS			RHPS			RBHD			LFHD			RFHD			LBHD			LHIP			RHIP			RASI			LASI			LKNE			LTHI			LANK			LTIP			LTOE			LMT1			LMT5			LHEE			RKNE			RTHI			RANK			RTIP			RTOE			RMT1			RMT5			RHEE			
		X1	Y1	Z1	X2	Y2	Z2	X3	Y3	Z3	X4	Y4	Z4	X5	Y5	Z5	X6	Y6	Z6	X7	Y7	Z7	X8	Y8	Z8	X9	Y9	Z9	X10	Y10	Z10	X11	Y11	Z11	X12	Y12	Z12	X13	Y13	Z13	X14	Y14	Z14	X15	Y15	Z15	X16	Y16	Z16	X17	Y17	Z17	X18	Y18	Z18	X19	Y19	Z19	X20	Y20	Z20	X21	Y21	Z21	X22	Y22	Z22	X23	Y23	Z23	X24	Y24	Z24	X25	Y25	Z25	X26	Y26	Z26	X27	Y27	Z27	X28	Y28	Z28	X29	Y29	Z29	X30	Y30	Z30	X31	Y31	Z31	X32	Y32	Z32	X33	Y33	Z33	X34	Y34	Z34	X35	Y35	Z35	X36	Y36	Z36	X37	Y37	Z37	X38	Y38	Z38	X39	Y39	Z39	X40	Y40	Z40	X41	Y41	Z41	X42	Y42	Z42	X43	Y43	Z43	X44	Y44	Z44	X45	Y45	Z45	X46	Y46	Z46	X47	Y47	Z47	X48	Y48	Z48	X49	Y49	Z49	X50	Y50	Z50	X51	Y51	Z51	X52	Y52	Z52	X53	Y53	Z53	

1	0	348.352294921875	1071.931884765625	1022.25341796875	388.9083862304688	1062.921020507812	1181.7939453125	378.9248962402344	1122.255004882812	1108.519653320312	174.2615203857422	1321.231201171875	1148.268798828125	413.493408203125	1264.719482421875	1101.264770507812	376.7545471191406	1534.930297851562	1112.806274414062	219.0304260253906	1445.8515625	1140.729858398438	409.5674438476562	1394.324462890625	1028.66650390625	412.9644470214844	1495.347290039062	1205.618896484375	327.9903869628906	1506.822998046875	1297.62109375	373.4570922851562	1384.29345703125	1372.2919921875	377.8892211914062	1168.428833007812	1406.57666015625	412.6575622558594	1151.2236328125	1307.982421875	266.1866760253906	919.9724731445312	1377.466552734375	348.7729797363281	901.8781127929688	1406.150390625	360.7654113769531	1053.17626953125	1419.680419921875	224.595458984375	739.1527709960938	1364.79736328125	310.3186950683594	814.0650024414062	1412.780151367188	242.7098388671875	827.5420532226562	1395.437622070312	268.4054870605469	1516.12353515625	956.9092407226562	268.79736328125	1446.050903320312	885.7594604492188	305.4230346679688	1178.907104492188	854.3402099609375	320.6927795410156	1152.005737304688	949.3424682617188	182.1695556640625	920.5542602539062	909.413818359375	232.1410980224609	904.5942993164062	833.1654052734375	289.6683959960938	1102.237915039062	841.0043334960938	164.7030639648438	735.4752197265625	932.2128295898438	145.4293823242188	811.3668212890625	903.2021484375	191.4591064453125	803.884521484375	844.1724853515625	336.5614318847656	1723.875854492188	1137.655639648438	120.6607208251953	1718.763671875	1164.953491210938	186.1452331542969	1726.97021484375	1238.217041015625	237.4136962890625	1710.962768554688	1034.204467773438	317.3575439453125	962.0761108398438	1309.084228515625	215.4217376708984	957.858642578125	952.627197265625	129.7049102783203	992.6575927734375	1046.138671875	189.7906646728516	1011.59912109375	1274.333740234375	266.311279296875	519.0282592773438	1270.7724609375	295.5851745605469	656.0626220703125	1303.034057617188	371.9092102050781	41.09954833984375	1261.4287109375	349.5779724121094	287.909912109375	1280.822875976562	149.5602874755859	40.86617660522461	1203.313598632812	208.2399444580078	48.99818801879883	1186.2080078125	248.7530517578125	37.71772766113281	1287.016235351562	438.6456604003906	49.24699020385742	1205.549438476562	241.4941558837891	525.2867431640625	986.3995361328125	205.085693359375	793.0714111328125	951.8712768554688	365.1521911621094	46.48991775512695	988.3696899414062	272.4399108886719	403.6101989746094	979.7782592773438	131.4003753662109	41.50405120849609	1028.078125	195.6277313232422	45.08363342285156	1058.828369140625	215.7604522705078	43.02634429931641	965.1450805664062	419.6358947753906	46.23584365844727	1035.114379882812	
2	0.01	348.3606262207031	1071.91259765625	1022.173522949219	388.9820556640625	1062.918701171875	1181.705688476562	378.9575500488281	1122.231201171875	1108.41162109375	174.3670806884766	1321.234741210938	1148.256469726562	413.4839172363281	1264.70751953125	1101.109008789062	376.8690795898438	1534.919555664062	1112.625732421875	219.1322326660156	1445.860595703125	1140.675659179688	409.6129760742188	1394.281127929688	1028.484130859375	413.1369934082031	1495.337768554688	1205.404296875	328.2387390136719	1506.869018554688	1297.494873046875	373.7246398925781	1384.322631835938	1372.128662109375	378.1582946777344	1168.44091796875	1406.42138671875	412.8606262207031	1151.25732421875	1307.79541015625	266.4233093261719	919.9857177734375	1377.391479492188	349.0111999511719	901.9083251953125	1406.033081054688	361.0458374023438	1053.202392578125	1419.534301757812	224.7914123535156	739.1585693359375	1364.722534179688	310.5580749511719	814.059814453125	1412.704956054688	242.9981994628906	827.553466796875	1395.354858398438	268.4144592285156	1516.09033203125	956.8016967773438	268.7154846191406	1446.006225585938	885.6536254882812	305.3162841796875	1178.862182617188	854.23974609375	320.7051696777344	1151.945190429688	949.2396850585938	182.0241394042969	920.54443359375	909.3998413085938	231.9768524169922	904.5569458007812	833.1325073242188	289.5618286132812	1102.19287109375	840.9275512695312	164.5653381347656	735.47265625	932.2266235351562	145.1504211425781	811.3787841796875	903.168701171875	191.2721557617188	803.8546142578125	844.1691284179688	336.7046203613281	1723.83349609375	1137.525024414062	120.8017654418945	1718.808959960938	1164.97607421875	186.28271484375	1726.9658203125	1238.168212890625	237.4925079345703	1710.970092773438	1034.122314453125	317.5106811523438	962.0951538085938	1309.042724609375	215.3598327636719	957.852294921875	952.6580200195312	129.6854705810547	992.6683349609375	1046.215087890625	189.9191436767578	1011.631469726562	1274.35791015625	266.4055480957031	519.0146484375	1270.784545898438	295.6587829589844	656.0737915039062	1303.048950195312	371.9063110351562	41.0965690612793	1261.426147460938	349.6241760253906	287.9210815429688	1280.815063476562	149.5608978271484	40.86764144897461	1203.31982421875	208.2396545410156	49.00356292724609	1186.211181640625	248.7534484863281	37.71634674072266	1287.022338867188	438.6451721191406	49.24522018432617	1205.548461914062	241.4756469726562	525.292236328125	986.4285888671875	205.0106506347656	793.0541381835938	951.9315185546875	365.1519775390625	46.48894119262695	988.373291015625	272.4227905273438	403.6122741699219	979.794921875	131.3926086425781	41.50781631469727	1028.078369140625	195.6446380615234	45.024169921875	1058.781372070312	215.7590026855469	43.02801132202148	965.1458129882812	419.6375122070312	46.23627090454102	1035.115600585938	
3	0.02	348.3737182617188	1071.886474609375	1022.070861816406	389.0815124511719	1062.915161132812	1181.589233398438	379.0033264160156	1122.199584960938	1108.2724609375	174.5036926269531	1321.241577148438	1148.238647460938	413.4845886230469	1264.688232421875	1100.905029296875	377.0231018066406	1534.90380859375	1112.38720703125	219.2735137939453	1445.873413085938	1140.603881835938	409.6727294921875	1394.222900390625	1028.244506835938	413.365478515625	1495.32470703125	1205.123901367188	328.5680847167969	1506.927734375	1297.328125	374.0747985839844	1384.359619140625	1371.91357421875	378.5081176757812	1168.456665039062	1406.216064453125	413.1270446777344	1151.298950195312	1307.549926757812	266.7332153320312	919.9993896484375	1377.291137695312	349.3299865722656	901.9456787109375	1405.876220703125	361.4095764160156	1053.235961914062	1419.343139648438	225.0577087402344	739.1669311523438	1364.622314453125	310.8853454589844	814.0623168945312	1412.598510742188	243.3693084716797	827.5721435546875	1395.244873046875	268.4270935058594	1516.047485351562	956.6597290039062	268.6125183105469	1445.948486328125	885.516845703125	305.1793212890625	1178.8037109375	854.1096801757812	320.7107543945312	1151.868041992188	949.1039428710938	181.8338012695312	920.5309448242188	909.3827514648438	231.7555694580078	904.5081787109375	833.0895385742188	289.4115905761719	1102.133544921875	840.823974609375	164.3852233886719	735.4679565429688	932.2456665039062	144.7932739257812	811.3911743164062	903.1290893554688	191.0208282470703	803.8147583007812	844.1646118164062	336.8944091796875	1723.77734375	1137.356201171875	120.9919357299805	1718.873901367188	1164.996337890625	186.4588775634766	1726.96337890625	1238.09912109375	237.6024627685547	1710.977294921875	1034.014526367188	317.7159729003906	962.1200561523438	1308.986083984375	215.2834320068359	957.8441162109375	952.6984252929688	129.6602935791016	992.6817626953125	1046.313354492188	190.0877990722656	1011.674621582031	1274.389404296875	266.5269775390625	518.9996948242188	1270.80078125	295.755126953125	656.089599609375	1303.068481445312	371.9029235839844	41.09299468994141	1261.422607421875	349.6870422363281	287.9350280761719	1280.801513671875	149.5615081787109	40.86956405639648	1203.327026367188	208.2389373779297	49.00992965698242	1186.215698242188	248.7539978027344	37.71424102783203	1287.029907226562	438.6441345214844	49.2423210144043	1205.546997070312	241.4510803222656	525.298583984375	986.466552734375	204.9151000976562	793.0320434570312	952.0147094726562	365.1520080566406	46.48783493041992	988.37744140625	272.4012145996094	403.6147766113281	979.8164672851562	131.3826751708984	41.51279830932617	1028.078247070312	195.6641387939453	44.9548454284668	1058.72705078125	215.7573547363281	43.030029296875	965.1468505859375	419.6394348144531	46.23687744140625	1035.117309570312	
4	0.03	348.3925170898438	1071.853881835938	1021.949279785156	389.2051086425781	1062.910278320312	1181.447631835938	379.0634155273438	1122.160400390625	1108.107177734375	174.6668090820312	1321.25244140625	1148.214965820312	413.5021362304688	1264.66064453125	1100.658569335938	377.2144470214844	1534.882690429688	1112.096069335938	219.4547271728516	1445.890258789062	1140.515502929688	409.7449035644531	1394.150756835938	1027.953857421875	413.6445617675781	1495.308227539062	1204.78564453125	328.970947265625	1506.996459960938	1297.12451171875	374.497802734375	1384.402709960938	1371.65234375	378.9275512695312	1168.475952148438	1405.965454101562	413.4495239257812	1151.345947265625	1307.25244140625	267.1083374023438	920.01171875	1377.167724609375	349.7233276367188	901.988037109375	1405.682495117188	361.84521484375	1053.275634765625	1419.1123046875	225.3926849365234	739.1776123046875	1364.49853515625	311.2981567382812	814.0774536132812	1412.459716796875	243.8089447021484	827.5985717773438	1395.10986328125	268.4436340332031	1515.996826171875	956.4869995117188	268.4936218261719	1445.879272460938	885.353759765625	305.0170593261719	1178.733032226562	853.9542846679688	320.7032470703125	1151.777465820312	948.9384155273438	181.6040344238281	920.5137329101562	909.3638916015625	231.4802093505859	904.4494018554688	833.037841796875	289.2165222167969	1102.061401367188	840.6952514648438	164.1676330566406	735.460693359375	932.270263671875	144.373291015625	811.4019165039062	903.0875244140625	190.7083282470703	803.7659301757812	844.1589965820312	337.1266174316406	1723.70849609375	1137.15576171875	121.2285766601562	1718.959594726562	1165.007934570312	186.667724609375	1726.96435546875	1238.008911132812	237.74462890625	1710.983032226562	1033.884155273438	317.9697570800781	962.1500244140625	1308.914916992188	215.1965026855469	957.8341674804688	952.7470092773438	129.6303558349609	992.6971435546875	1046.429931640625	190.2921447753906	1011.727783203125	1274.427368164062	266.6707458496094	518.9854736328125	1270.82080078125	295.8720092773438	656.1102294921875	1303.092163085938	371.8993225097656	41.08911514282227	1261.417846679688	349.7660217285156	287.9509582519531	1280.781127929688	149.5620727539062	40.87190246582031	1203.334716796875	208.2377166748047	49.01678085327148	1186.221557617188	248.7547760009766	37.71135330200195	1287.038330078125	438.6423645019531	49.23810195922852	1205.544677734375	241.4211578369141	525.3052368164062	986.5121459960938	204.803466796875	793.0062255859375	952.1195678710938	365.15234375	46.4866943359375	988.3818359375	272.3762817382812	403.6174926757812	979.8422241210938	131.3709564208984	41.51887893676758	1028.077392578125	195.6844024658203	44.88177108764648	1058.670654296875	215.7556915283203	43.03225708007812	965.1482543945312	419.6416625976562	46.23769378662109	1035.119140625	
